<svg width="295" height="295" viewBox="0 0 295 295" fill="none" xmlns="http://www.w3.org/2000/svg">
<g clip-path="url(#clip0_1_54)">
<path fill-rule="evenodd" clip-rule="evenodd" d="M-0.148376 -0.148392C98.1849 -0.148392 196.518 -0.148392 294.852 -0.148392C294.852 15.8778 294.852 31.9039 294.852 47.9301C270.516 47.9301 246.18 47.9301 221.844 47.9301C221.844 56.1411 221.844 64.3518 221.844 72.5629C229.857 72.5133 237.87 72.5629 245.883 72.7113C230.062 97.4806 213.69 121.866 196.766 145.868C179.789 121.958 163.516 97.572 147.945 72.7113C155.958 72.5629 163.971 72.5133 171.984 72.5629C171.984 64.3518 171.984 56.1411 171.984 47.9301C114.607 47.9301 57.2291 47.9301 -0.148376 47.9301C-0.148376 31.9039 -0.148376 15.8778 -0.148376 -0.148392Z" fill="#FE6E6E"/>
<path fill-rule="evenodd" clip-rule="evenodd" d="M-0.148376 47.9301C57.2291 47.9301 114.607 47.9301 171.984 47.9301C171.984 56.1411 171.984 64.3518 171.984 72.5629C163.971 72.5133 155.958 72.5629 147.945 72.7113C163.516 97.572 179.789 121.958 196.766 145.868C213.69 121.866 230.062 97.4806 245.883 72.7113C237.87 72.5629 229.857 72.5133 221.844 72.5629C221.844 64.3518 221.844 56.1411 221.844 47.9301C246.18 47.9301 270.516 47.9301 294.852 47.9301C294.852 89.1826 294.852 130.435 294.852 171.688C237.474 171.688 180.096 171.688 122.719 171.688C122.719 163.477 122.719 155.266 122.719 147.055C130.93 147.104 139.141 147.055 147.352 146.906C131.41 122.656 115.235 98.5671 98.828 74.6403C96.736 76.7516 94.8562 79.0271 93.1891 81.4663C78.3071 102.829 63.7153 124.396 49.414 146.164C55.8295 146.718 62.2599 147.015 68.7047 147.055C69.9316 147.347 71.2179 147.446 72.5629 147.352C72.5629 155.464 72.5629 163.576 72.5629 171.688C48.3257 171.688 24.0887 171.688 -0.148376 171.688C-0.148376 130.435 -0.148376 89.1826 -0.148376 47.9301Z" fill="#18181B"/>
<path fill-rule="evenodd" clip-rule="evenodd" d="M122.719 147.055C122.423 155.314 122.324 163.624 122.422 171.984C179.899 171.984 237.375 171.984 294.852 171.984C294.852 188.307 294.852 204.63 294.852 220.953C196.518 221.076 98.1849 221.273 -0.148376 221.547C-0.148376 205.026 -0.148376 188.505 -0.148376 171.984C24.1876 171.984 48.5237 171.984 72.8597 171.984C72.8597 163.675 72.8597 155.365 72.8597 147.055C71.4746 147.055 70.0898 147.055 68.7047 147.055C62.2599 147.015 55.8295 146.718 49.414 146.164C63.7153 124.396 78.3071 102.829 93.1891 81.4663C94.8562 79.0271 96.736 76.7516 98.828 74.6404C115.235 98.5671 131.41 122.656 147.352 146.906C139.141 147.055 130.93 147.104 122.719 147.055Z" fill="#FE986F"/>
<path fill-rule="evenodd" clip-rule="evenodd" d="M68.7047 147.055C70.0898 147.055 71.4746 147.055 72.8597 147.055C72.8597 155.365 72.8597 163.675 72.8597 171.984C48.5237 171.984 24.1876 171.984 -0.148376 171.984C-0.148376 171.886 -0.148376 171.786 -0.148376 171.688C24.0887 171.688 48.3257 171.688 72.5629 171.688C72.5629 163.576 72.5629 155.464 72.5629 147.352C71.2179 147.446 69.9316 147.347 68.7047 147.055Z" fill="#6B4639"/>
<path fill-rule="evenodd" clip-rule="evenodd" d="M122.719 147.055C122.719 155.266 122.719 163.477 122.719 171.688C180.096 171.688 237.474 171.688 294.852 171.688C294.852 171.786 294.852 171.886 294.852 171.984C237.375 171.984 179.899 171.984 122.422 171.984C122.324 163.623 122.423 155.314 122.719 147.055Z" fill="#855543"/>
<path fill-rule="evenodd" clip-rule="evenodd" d="M294.852 220.953C294.852 229.362 294.852 237.771 294.852 246.18C196.518 246.18 98.1849 246.18 -0.148376 246.18C-0.148376 237.969 -0.148376 229.758 -0.148376 221.547C98.1849 221.273 196.518 221.076 294.852 220.953Z" fill="#18181B"/>
<path fill-rule="evenodd" clip-rule="evenodd" d="M-0.148376 246.18C98.1849 246.18 196.518 246.18 294.852 246.18C294.852 262.404 294.852 278.628 294.852 294.852C196.518 294.852 98.1849 294.852 -0.148376 294.852C-0.148376 278.628 -0.148376 262.404 -0.148376 246.18Z" fill="#FED76F"/>
</g>
<defs>
<clipPath id="clip0_1_54">
<rect width="295" height="295" rx="40" fill="white"/>
</clipPath>
</defs>
</svg>
