<svg width="1606" height="295" viewBox="0 0 1606 295" fill="none" xmlns="http://www.w3.org/2000/svg">
<g clip-path="url(#clip0_1_100)">
<path fill-rule="evenodd" clip-rule="evenodd" d="M-0.148376 -0.148376C98.1849 -0.148376 196.518 -0.148376 294.852 -0.148376C294.852 15.8778 294.852 31.9039 294.852 47.9301C270.516 47.9301 246.18 47.9301 221.844 47.9301C221.844 56.1411 221.844 64.3519 221.844 72.5629C229.857 72.5133 237.87 72.5629 245.883 72.7113C230.062 97.4806 213.69 121.866 196.766 145.868C179.789 121.958 163.516 97.572 147.945 72.7113C155.958 72.5629 163.971 72.5133 171.984 72.5629C171.984 64.3519 171.984 56.1411 171.984 47.9301C114.607 47.9301 57.2291 47.9301 -0.148376 47.9301C-0.148376 31.9039 -0.148376 15.8778 -0.148376 -0.148376Z" fill="#FE6E6E"/>
<path fill-rule="evenodd" clip-rule="evenodd" d="M-0.148376 47.9301C57.2291 47.9301 114.607 47.9301 171.984 47.9301C171.984 56.1411 171.984 64.3518 171.984 72.5629C163.971 72.5133 155.958 72.5629 147.945 72.7113C163.516 97.572 179.789 121.958 196.766 145.868C213.69 121.866 230.062 97.4806 245.883 72.7113C237.87 72.5629 229.857 72.5133 221.844 72.5629C221.844 64.3518 221.844 56.1411 221.844 47.9301C246.18 47.9301 270.516 47.9301 294.852 47.9301C294.852 89.1826 294.852 130.435 294.852 171.688C237.474 171.688 180.096 171.688 122.719 171.688C122.719 163.477 122.719 155.266 122.719 147.055C130.93 147.104 139.141 147.055 147.352 146.906C131.41 122.656 115.235 98.5671 98.828 74.6403C96.736 76.7516 94.8562 79.0271 93.1891 81.4663C78.3071 102.829 63.7153 124.396 49.414 146.164C55.8295 146.718 62.2599 147.015 68.7047 147.055C69.9316 147.347 71.2179 147.446 72.5629 147.352C72.5629 155.464 72.5629 163.576 72.5629 171.688C48.3257 171.688 24.0887 171.688 -0.148376 171.688C-0.148376 130.435 -0.148376 89.1826 -0.148376 47.9301Z" fill="#18181B"/>
<path fill-rule="evenodd" clip-rule="evenodd" d="M122.719 147.055C122.423 155.314 122.324 163.624 122.422 171.984C179.899 171.984 237.375 171.984 294.852 171.984C294.852 188.307 294.852 204.63 294.852 220.953C196.518 221.076 98.1849 221.273 -0.148376 221.547C-0.148376 205.026 -0.148376 188.505 -0.148376 171.984C24.1876 171.984 48.5237 171.984 72.8597 171.984C72.8597 163.675 72.8597 155.365 72.8597 147.055C71.4746 147.055 70.0898 147.055 68.7047 147.055C62.2599 147.015 55.8295 146.718 49.414 146.164C63.7153 124.396 78.3071 102.829 93.1891 81.4663C94.8562 79.0271 96.736 76.7516 98.828 74.6404C115.235 98.5671 131.41 122.656 147.352 146.906C139.141 147.055 130.93 147.104 122.719 147.055Z" fill="#FE986F"/>
<path fill-rule="evenodd" clip-rule="evenodd" d="M68.7047 147.055C70.0898 147.055 71.4746 147.055 72.8597 147.055C72.8597 155.365 72.8597 163.675 72.8597 171.984C48.5237 171.984 24.1876 171.984 -0.148376 171.984C-0.148376 171.886 -0.148376 171.786 -0.148376 171.688C24.0887 171.688 48.3257 171.688 72.5629 171.688C72.5629 163.576 72.5629 155.463 72.5629 147.352C71.2179 147.446 69.9316 147.347 68.7047 147.055Z" fill="#6B4639"/>
<path fill-rule="evenodd" clip-rule="evenodd" d="M122.719 147.055C122.719 155.266 122.719 163.477 122.719 171.688C180.096 171.688 237.474 171.688 294.852 171.688C294.852 171.786 294.852 171.886 294.852 171.984C237.375 171.984 179.899 171.984 122.422 171.984C122.324 163.623 122.423 155.314 122.719 147.055Z" fill="#855543"/>
<path fill-rule="evenodd" clip-rule="evenodd" d="M294.852 220.953C294.852 229.362 294.852 237.771 294.852 246.18C196.518 246.18 98.1849 246.18 -0.148376 246.18C-0.148376 237.969 -0.148376 229.758 -0.148376 221.547C98.1849 221.273 196.518 221.076 294.852 220.953Z" fill="#18181B"/>
<path fill-rule="evenodd" clip-rule="evenodd" d="M-0.148376 246.18C98.1849 246.18 196.518 246.18 294.852 246.18C294.852 262.404 294.852 278.628 294.852 294.852C196.518 294.852 98.1849 294.852 -0.148376 294.852C-0.148376 278.628 -0.148376 262.404 -0.148376 246.18Z" fill="#FED76F"/>
</g>
<path d="M443.75 62.5947C458.968 62.5947 471.948 65.2396 482.69 70.5293V107.883L482.446 108.127C477.889 101.128 468.286 96.4896 453.638 94.2109C449.325 93.4785 443.872 93.1123 437.28 93.1123C430.688 93.1123 424.219 94.3737 417.871 96.8965C411.523 99.3379 406.315 102.837 402.246 107.395C394.352 116.265 390.405 128.92 390.405 145.358C390.405 164.483 395.41 178.724 405.42 188.083C413.721 195.896 424.707 199.802 438.379 199.802C453.841 199.802 466.374 196.506 475.977 189.914C479.476 187.554 482.446 184.624 484.888 181.125L485.254 181.369V215.549C472.803 225.884 456.038 231.052 434.961 231.052C410.14 231.052 390.69 223.158 376.611 207.37C363.102 192.315 356.348 172.377 356.348 147.556C356.348 121.27 363.753 100.559 378.564 85.4219C393.538 70.2038 415.267 62.5947 443.75 62.5947ZM493.687 164.89C493.687 155.938 495.192 147.393 498.203 139.255C501.296 131.035 505.69 123.874 511.387 117.771C523.838 104.587 539.992 97.9951 559.849 97.9951C579.624 97.9951 595.33 104.221 606.968 116.672C618.117 128.553 623.691 143.975 623.691 162.937C623.691 181.898 617.954 197.604 606.479 210.056C594.354 223.239 578.281 229.831 558.262 229.831C537.591 229.831 521.396 223.361 509.678 210.422C499.017 198.622 493.687 183.444 493.687 164.89ZM523.35 164.157C523.35 169.284 524.204 174.248 525.913 179.05C527.622 183.851 530.063 187.961 533.237 191.379C539.992 198.785 548.862 202.487 559.849 202.487C570.021 202.487 578.037 198.866 583.896 191.623C589.593 184.624 592.441 175.51 592.441 164.279C592.441 152.886 589.512 143.69 583.652 136.691C577.386 129.204 568.8 125.461 557.896 125.461C546.828 125.461 538.161 129.449 531.895 137.424C526.198 144.748 523.35 153.659 523.35 164.157ZM671.309 212.375C671.309 219.536 671.634 224.745 672.285 228H641.646V100.437H671.309V111.301C682.051 102.43 693.525 97.9951 705.732 97.9951C719.079 97.9951 729.74 102.552 737.715 111.667C745.69 120.7 749.678 132.622 749.678 147.434V196.018C749.678 209.771 749.881 218.031 750.288 220.798C750.695 223.565 751.224 225.355 751.875 226.169C752.607 226.983 753.218 227.715 753.706 228.366L753.462 228.854C746.87 228.285 742.069 228 739.058 228H730.513C727.909 228 724.409 228.122 720.015 228.366V161.838C720.015 137.993 712.772 126.071 698.286 126.071C687.544 126.071 678.551 131.605 671.309 142.673V212.375ZM832.085 201.145C842.583 201.145 849.785 198.418 853.691 192.966H854.668L855.034 221.286C851.047 225.274 843.641 227.919 832.817 229.221C829.888 229.628 826.226 229.831 821.831 229.831C817.518 229.831 812.798 229.017 807.671 227.39C802.625 225.762 798.312 223.117 794.731 219.455C787.326 211.887 783.623 200.046 783.623 183.933V128.513H765.19C765.109 126.153 765.068 123.752 765.068 121.311V102.512C765.068 101.128 765.109 100.437 765.19 100.437H783.623V65.6465H813.53V100.437H847.1V128.513H813.53V178.317C813.53 191.094 817.07 198.378 824.15 200.168C826.429 200.819 829.074 201.145 832.085 201.145ZM863.833 165.256C863.833 155.734 865.461 146.905 868.716 138.767C871.971 130.629 876.569 123.508 882.51 117.404C895.205 104.465 911.807 97.9951 932.314 97.9951C949.648 97.9951 963.564 103.732 974.062 115.207C984.398 126.275 989.565 140.191 989.565 156.955C989.565 163.384 989.077 167.779 988.101 170.139C979.963 172.417 963.402 173.557 938.418 173.557H895.449C897.565 182.264 902.489 189.06 910.22 193.942C917.951 198.744 928.001 201.145 940.371 201.145C953.311 201.145 964.419 198.825 973.696 194.187C976.138 192.966 977.969 191.826 979.189 190.769C979.027 194.187 978.823 197.686 978.579 201.267L977.236 220.31C971.051 224.541 961.042 227.471 947.207 229.099C943.138 229.587 939.232 229.831 935.488 229.831C914.818 229.831 897.728 223.809 884.219 211.765C870.628 199.639 863.833 184.136 863.833 165.256ZM957.095 149.875C953.758 132.378 944.237 123.63 928.53 123.63C916.16 123.63 906.761 128.96 900.332 139.621C898.379 142.876 896.873 146.457 895.815 150.363C897.769 150.445 900.169 150.526 903.018 150.607H912.051C915.062 150.689 917.951 150.729 920.718 150.729H927.676C931.826 150.729 935.895 150.689 939.883 150.607L949.893 150.241C952.578 150.16 954.979 150.038 957.095 149.875ZM1038.28 212.375C1038.28 219.536 1038.61 224.745 1039.26 228H1008.62V100.437H1038.28V111.301C1049.02 102.43 1060.5 97.9951 1072.71 97.9951C1086.05 97.9951 1096.71 102.552 1104.69 111.667C1112.66 120.7 1116.65 132.622 1116.65 147.434V196.018C1116.65 209.771 1116.85 218.031 1117.26 220.798C1117.67 223.565 1118.2 225.355 1118.85 226.169C1119.58 226.983 1120.19 227.715 1120.68 228.366L1120.43 228.854C1113.84 228.285 1109.04 228 1106.03 228H1097.49C1094.88 228 1091.38 228.122 1086.99 228.366V161.838C1086.99 137.993 1079.74 126.071 1065.26 126.071C1054.52 126.071 1045.52 131.605 1038.28 142.673V212.375ZM1199.06 201.145C1209.56 201.145 1216.76 198.418 1220.66 192.966H1221.64L1222.01 221.286C1218.02 225.274 1210.61 227.919 1199.79 229.221C1196.86 229.628 1193.2 229.831 1188.8 229.831C1184.49 229.831 1179.77 229.017 1174.64 227.39C1169.6 225.762 1165.28 223.117 1161.7 219.455C1154.3 211.887 1150.6 200.046 1150.6 183.933V128.513H1132.16C1132.08 126.153 1132.04 123.752 1132.04 121.311V102.512C1132.04 101.128 1132.08 100.437 1132.16 100.437H1150.6V65.6465H1180.5V100.437H1214.07V128.513H1180.5V178.317C1180.5 191.094 1184.04 198.378 1191.12 200.168C1193.4 200.819 1196.05 201.145 1199.06 201.145ZM1263.76 228C1251.8 228 1243.87 228.244 1239.96 228.732V64.9141C1241.91 65.4023 1245.94 65.6465 1252.05 65.6465C1258.23 65.6465 1265.39 65.4837 1273.53 65.1582V198.703H1298.8C1306.12 198.703 1311.98 198.459 1316.38 197.971C1315.81 217.014 1315.52 226.901 1315.52 227.634V228.854C1307.55 228.285 1294.16 228 1275.36 228H1263.76ZM1327.5 64.0596C1334.01 53.887 1340.8 44.9352 1347.88 37.2041L1374.13 57.834C1370.63 62.1471 1367.37 66.3789 1364.36 70.5293C1364.36 70.5293 1361.23 74.9645 1354.96 83.835L1327.5 64.0596ZM1359.6 214.328C1359.6 221.327 1359.76 225.884 1360.09 228H1329.08V100.437H1359.6V214.328ZM1427.11 229.831C1404.17 229.831 1386.87 225.64 1375.23 217.258C1375.4 214.816 1375.64 212.049 1375.97 208.957L1377.07 200.168C1377.72 194.39 1378.12 190.809 1378.29 189.426C1378.45 187.961 1378.57 187.188 1378.65 187.106C1378.73 186.944 1379.38 187.595 1380.61 189.06C1381.83 190.443 1384.15 192.152 1387.56 194.187C1390.98 196.221 1394.93 198.011 1399.4 199.558C1409.09 202.894 1419.18 204.562 1429.68 204.562C1443.76 204.562 1450.8 199.883 1450.8 190.524C1450.8 187.513 1449.45 185.275 1446.77 183.811C1441.97 181.369 1434.89 179.538 1425.53 178.317C1416.25 177.015 1408.64 175.144 1402.7 172.702C1396.76 170.261 1391.92 167.331 1388.17 163.913C1381.26 157.484 1377.8 149.061 1377.8 138.645C1377.8 125.949 1382.68 115.98 1392.45 108.737C1402.13 101.576 1415.52 97.9951 1432.61 97.9951C1449.53 97.9951 1463.98 102.797 1475.94 112.399C1475.37 114.515 1474.76 116.55 1474.11 118.503C1472.24 123.874 1470.86 127.74 1469.96 130.1L1467.15 137.302C1466.99 137.953 1466.87 138.278 1466.79 138.278C1466.62 138.278 1465.97 137.424 1464.83 135.715C1459.71 129.774 1451.73 125.868 1440.91 123.996C1437.57 123.345 1434.15 123.02 1430.65 123.02C1415.84 123.02 1408.44 127.495 1408.44 136.447C1408.44 139.54 1409.98 141.9 1413.08 143.527C1418.85 146.62 1426.75 148.898 1436.76 150.363C1446.85 151.828 1454.5 153.822 1459.71 156.345C1464.92 158.786 1469.11 161.757 1472.28 165.256C1478.14 171.604 1481.07 180.026 1481.07 190.524C1481.07 201.999 1476.47 211.317 1467.28 218.479C1457.67 226.047 1444.29 229.831 1427.11 229.831ZM1556.03 201.145C1566.53 201.145 1573.73 198.418 1577.64 192.966H1578.61L1578.98 221.286C1574.99 225.274 1567.59 227.919 1556.76 229.221C1553.83 229.628 1550.17 229.831 1545.78 229.831C1541.46 229.831 1536.74 229.017 1531.62 227.39C1526.57 225.762 1522.26 223.117 1518.68 219.455C1511.27 211.887 1507.57 200.046 1507.57 183.933V128.513H1489.14C1489.05 126.153 1489.01 123.752 1489.01 121.311V102.512C1489.01 101.128 1489.05 100.437 1489.14 100.437H1507.57V65.6465H1537.48V100.437H1571.04V128.513H1537.48V178.317C1537.48 191.094 1541.02 198.378 1548.1 200.168C1550.37 200.819 1553.02 201.145 1556.03 201.145Z" fill="#E3E3E7" fill-opacity="0.933333"/>
<defs>
<clipPath id="clip0_1_100">
<rect width="295" height="295" rx="40" fill="white"/>
</clipPath>
</defs>
</svg>
