<svg width="1679" height="313" viewBox="0 0 1679 313" fill="none" xmlns="http://www.w3.org/2000/svg">
<g clip-path="url(#clip0_1_100)">
<path fill-rule="evenodd" clip-rule="evenodd" d="M-0.148376 8.85161C98.1849 8.85161 196.518 8.85161 294.852 8.85161C294.852 24.8778 294.852 40.9039 294.852 56.9301C270.516 56.9301 246.18 56.9301 221.844 56.9301C221.844 65.1411 221.844 73.3518 221.844 81.5629C229.857 81.5133 237.87 81.5629 245.883 81.7113C230.062 106.481 213.69 130.866 196.766 154.868C179.789 130.958 163.516 106.572 147.945 81.7113C155.958 81.5629 163.971 81.5133 171.984 81.5629C171.984 73.3518 171.984 65.1411 171.984 56.9301C114.607 56.9301 57.2291 56.9301 -0.148376 56.9301C-0.148376 40.9039 -0.148376 24.8778 -0.148376 8.85161Z" fill="#FE6E6E"/>
<path fill-rule="evenodd" clip-rule="evenodd" d="M-0.148376 56.9301C57.2291 56.9301 114.607 56.9301 171.984 56.9301C171.984 65.1411 171.984 73.3518 171.984 81.5629C163.971 81.5133 155.958 81.5629 147.945 81.7113C163.516 106.572 179.789 130.958 196.766 154.868C213.69 130.866 230.062 106.481 245.883 81.7113C237.87 81.5629 229.857 81.5133 221.844 81.5629C221.844 73.3518 221.844 65.1411 221.844 56.9301C246.18 56.9301 270.516 56.9301 294.852 56.9301C294.852 98.1826 294.852 139.435 294.852 180.688C237.474 180.688 180.096 180.688 122.719 180.688C122.719 172.477 122.719 164.266 122.719 156.055C130.93 156.104 139.141 156.055 147.352 155.906C131.41 131.656 115.235 107.567 98.828 83.6403C96.736 85.7516 94.8562 88.0271 93.1891 90.4663C78.3071 111.829 63.7153 133.396 49.414 155.164C55.8295 155.718 62.2599 156.015 68.7047 156.055C69.9316 156.347 71.2179 156.446 72.5629 156.352C72.5629 164.464 72.5629 172.576 72.5629 180.688C48.3257 180.688 24.0887 180.688 -0.148376 180.688C-0.148376 139.435 -0.148376 98.1826 -0.148376 56.9301Z" fill="#18181B"/>
<path fill-rule="evenodd" clip-rule="evenodd" d="M122.719 156.055C122.423 164.314 122.324 172.624 122.422 180.984C179.899 180.984 237.375 180.984 294.852 180.984C294.852 197.307 294.852 213.63 294.852 229.953C196.518 230.076 98.1849 230.273 -0.148376 230.547C-0.148376 214.026 -0.148376 197.505 -0.148376 180.984C24.1876 180.984 48.5237 180.984 72.8597 180.984C72.8597 172.675 72.8597 164.365 72.8597 156.055C71.4746 156.055 70.0898 156.055 68.7047 156.055C62.2599 156.015 55.8295 155.718 49.414 155.164C63.7153 133.396 78.3071 111.829 93.1891 90.4663C94.8562 88.0271 96.736 85.7516 98.828 83.6404C115.235 107.567 131.41 131.656 147.352 155.906C139.141 156.055 130.93 156.104 122.719 156.055Z" fill="#FE986F"/>
<path fill-rule="evenodd" clip-rule="evenodd" d="M68.7047 156.055C70.0898 156.055 71.4746 156.055 72.8597 156.055C72.8597 164.365 72.8597 172.675 72.8597 180.984C48.5237 180.984 24.1876 180.984 -0.148376 180.984C-0.148376 180.886 -0.148376 180.786 -0.148376 180.688C24.0887 180.688 48.3257 180.688 72.5629 180.688C72.5629 172.576 72.5629 164.464 72.5629 156.352C71.2179 156.446 69.9316 156.347 68.7047 156.055Z" fill="#6B4639"/>
<path fill-rule="evenodd" clip-rule="evenodd" d="M122.719 156.055C122.719 164.266 122.719 172.477 122.719 180.688C180.096 180.688 237.474 180.688 294.852 180.688C294.852 180.786 294.852 180.886 294.852 180.984C237.375 180.984 179.899 180.984 122.422 180.984C122.324 172.623 122.423 164.314 122.719 156.055Z" fill="#855543"/>
<path fill-rule="evenodd" clip-rule="evenodd" d="M294.852 229.953C294.852 238.362 294.852 246.771 294.852 255.18C196.518 255.18 98.1849 255.18 -0.148376 255.18C-0.148376 246.969 -0.148376 238.758 -0.148376 230.547C98.1849 230.273 196.518 230.076 294.852 229.953Z" fill="#18181B"/>
<path fill-rule="evenodd" clip-rule="evenodd" d="M-0.148376 255.18C98.1849 255.18 196.518 255.18 294.852 255.18C294.852 271.404 294.852 287.628 294.852 303.852C196.518 303.852 98.1849 303.852 -0.148376 303.852C-0.148376 287.628 -0.148376 271.404 -0.148376 255.18Z" fill="#FED76F"/>
</g>
<path d="M445.75 59.5947C460.968 59.5947 473.948 62.2396 484.69 67.5293V104.883L484.446 105.127C479.889 98.1283 470.286 93.4896 455.638 91.2109C451.325 90.4785 445.872 90.1123 439.28 90.1123C432.688 90.1123 426.219 91.3737 419.871 93.8965C413.523 96.3379 408.315 99.8372 404.246 104.395C396.352 113.265 392.405 125.92 392.405 142.358C392.405 161.483 397.41 175.724 407.42 185.083C415.721 192.896 426.707 196.802 440.379 196.802C455.841 196.802 468.374 193.506 477.977 186.914C481.476 184.554 484.446 181.624 486.888 178.125L487.254 178.369V212.549C474.803 222.884 458.038 228.052 436.961 228.052C412.14 228.052 392.69 220.158 378.611 204.37C365.102 189.315 358.348 169.377 358.348 144.556C358.348 118.27 365.753 97.5586 380.564 82.4219C395.538 67.2038 417.267 59.5947 445.75 59.5947ZM495.687 161.89C495.687 152.938 497.192 144.393 500.203 136.255C503.296 128.035 507.69 120.874 513.387 114.771C525.838 101.587 541.992 94.9951 561.849 94.9951C581.624 94.9951 597.33 101.221 608.968 113.672C620.117 125.553 625.691 140.975 625.691 159.937C625.691 178.898 619.954 194.604 608.479 207.056C596.354 220.239 580.281 226.831 560.262 226.831C539.591 226.831 523.396 220.361 511.678 207.422C501.017 195.622 495.687 180.444 495.687 161.89ZM525.35 161.157C525.35 166.284 526.204 171.248 527.913 176.05C529.622 180.851 532.063 184.961 535.237 188.379C541.992 195.785 550.862 199.487 561.849 199.487C572.021 199.487 580.037 195.866 585.896 188.623C591.593 181.624 594.441 172.51 594.441 161.279C594.441 149.886 591.512 140.69 585.652 133.691C579.386 126.204 570.8 122.461 559.896 122.461C548.828 122.461 540.161 126.449 533.895 134.424C528.198 141.748 525.35 150.659 525.35 161.157ZM673.309 209.375C673.309 216.536 673.634 221.745 674.285 225H643.646V97.4365H673.309V108.301C684.051 99.4303 695.525 94.9951 707.732 94.9951C721.079 94.9951 731.74 99.5524 739.715 108.667C747.69 117.7 751.678 129.622 751.678 144.434V193.018C751.678 206.771 751.881 215.031 752.288 217.798C752.695 220.565 753.224 222.355 753.875 223.169C754.607 223.983 755.218 224.715 755.706 225.366L755.462 225.854C748.87 225.285 744.069 225 741.058 225H732.513C729.909 225 726.409 225.122 722.015 225.366V158.838C722.015 134.993 714.772 123.071 700.286 123.071C689.544 123.071 680.551 128.605 673.309 139.673V209.375ZM834.085 198.145C844.583 198.145 851.785 195.418 855.691 189.966H856.668L857.034 218.286C853.047 222.274 845.641 224.919 834.817 226.221C831.888 226.628 828.226 226.831 823.831 226.831C819.518 226.831 814.798 226.017 809.671 224.39C804.625 222.762 800.312 220.117 796.731 216.455C789.326 208.887 785.623 197.046 785.623 180.933V125.513H767.19C767.109 123.153 767.068 120.752 767.068 118.311V99.5117C767.068 98.1283 767.109 97.4365 767.19 97.4365H785.623V62.6465H815.53V97.4365H849.1V125.513H815.53V175.317C815.53 188.094 819.07 195.378 826.15 197.168C828.429 197.819 831.074 198.145 834.085 198.145ZM865.833 162.256C865.833 152.734 867.461 143.905 870.716 135.767C873.971 127.629 878.569 120.508 884.51 114.404C897.205 101.465 913.807 94.9951 934.314 94.9951C951.648 94.9951 965.564 100.732 976.062 112.207C986.398 123.275 991.565 137.191 991.565 153.955C991.565 160.384 991.077 164.779 990.101 167.139C981.963 169.417 965.402 170.557 940.418 170.557H897.449C899.565 179.264 904.489 186.06 912.22 190.942C919.951 195.744 930.001 198.145 942.371 198.145C955.311 198.145 966.419 195.825 975.696 191.187C978.138 189.966 979.969 188.826 981.189 187.769C981.027 191.187 980.823 194.686 980.579 198.267L979.236 217.31C973.051 221.541 963.042 224.471 949.207 226.099C945.138 226.587 941.232 226.831 937.488 226.831C916.818 226.831 899.728 220.809 886.219 208.765C872.628 196.639 865.833 181.136 865.833 162.256ZM959.095 146.875C955.758 129.378 946.237 120.63 930.53 120.63C918.16 120.63 908.761 125.96 902.332 136.621C900.379 139.876 898.873 143.457 897.815 147.363C899.769 147.445 902.169 147.526 905.018 147.607H914.051C917.062 147.689 919.951 147.729 922.718 147.729H929.676C933.826 147.729 937.895 147.689 941.883 147.607L951.893 147.241C954.578 147.16 956.979 147.038 959.095 146.875ZM1040.28 209.375C1040.28 216.536 1040.61 221.745 1041.26 225H1010.62V97.4365H1040.28V108.301C1051.02 99.4303 1062.5 94.9951 1074.71 94.9951C1088.05 94.9951 1098.71 99.5524 1106.69 108.667C1114.66 117.7 1118.65 129.622 1118.65 144.434V193.018C1118.65 206.771 1118.85 215.031 1119.26 217.798C1119.67 220.565 1120.2 222.355 1120.85 223.169C1121.58 223.983 1122.19 224.715 1122.68 225.366L1122.43 225.854C1115.84 225.285 1111.04 225 1108.03 225H1099.49C1096.88 225 1093.38 225.122 1088.99 225.366V158.838C1088.99 134.993 1081.74 123.071 1067.26 123.071C1056.52 123.071 1047.52 128.605 1040.28 139.673V209.375ZM1201.06 198.145C1211.56 198.145 1218.76 195.418 1222.66 189.966H1223.64L1224.01 218.286C1220.02 222.274 1212.61 224.919 1201.79 226.221C1198.86 226.628 1195.2 226.831 1190.8 226.831C1186.49 226.831 1181.77 226.017 1176.64 224.39C1171.6 222.762 1167.28 220.117 1163.7 216.455C1156.3 208.887 1152.6 197.046 1152.6 180.933V125.513H1134.16C1134.08 123.153 1134.04 120.752 1134.04 118.311V99.5117C1134.04 98.1283 1134.08 97.4365 1134.16 97.4365H1152.6V62.6465H1182.5V97.4365H1216.07V125.513H1182.5V175.317C1182.5 188.094 1186.04 195.378 1193.12 197.168C1195.4 197.819 1198.05 198.145 1201.06 198.145ZM1338.77 225C1326.81 225 1318.88 225.244 1314.97 225.732V61.9141C1316.92 62.4023 1320.95 62.6465 1327.05 62.6465C1333.24 62.6465 1340.4 62.4837 1348.54 62.1582V195.703H1373.81C1381.13 195.703 1386.99 195.459 1391.38 194.971C1390.82 214.014 1390.53 223.901 1390.53 224.634V225.854C1382.56 225.285 1369.17 225 1350.37 225H1338.77ZM1402.5 61.0596C1409.01 50.887 1415.81 41.9352 1422.89 34.2041L1449.13 54.834C1445.63 59.1471 1442.38 63.3789 1439.37 67.5293C1439.37 67.5293 1436.24 71.9645 1429.97 80.835L1402.5 61.0596ZM1434.61 211.328C1434.61 218.327 1434.77 222.884 1435.1 225H1404.09V97.4365H1434.61V211.328ZM1502.12 226.831C1479.17 226.831 1461.88 222.64 1450.24 214.258C1450.4 211.816 1450.65 209.049 1450.97 205.957L1452.07 197.168C1452.72 191.39 1453.13 187.809 1453.29 186.426C1453.46 184.961 1453.58 184.188 1453.66 184.106C1453.74 183.944 1454.39 184.595 1455.61 186.06C1456.83 187.443 1459.15 189.152 1462.57 191.187C1465.99 193.221 1469.94 195.011 1474.41 196.558C1484.1 199.894 1494.19 201.562 1504.69 201.562C1518.76 201.562 1525.8 196.883 1525.8 187.524C1525.8 184.513 1524.46 182.275 1521.78 180.811C1516.97 178.369 1509.89 176.538 1500.54 175.317C1491.26 174.015 1483.65 172.144 1477.71 169.702C1471.77 167.261 1466.93 164.331 1463.18 160.913C1456.26 154.484 1452.81 146.061 1452.81 135.645C1452.81 122.949 1457.69 112.98 1467.45 105.737C1477.14 98.5758 1490.53 94.9951 1507.62 94.9951C1524.54 94.9951 1538.99 99.7965 1550.95 109.399C1550.38 111.515 1549.77 113.55 1549.12 115.503C1547.25 120.874 1545.86 124.74 1544.97 127.1L1542.16 134.302C1542 134.953 1541.88 135.278 1541.79 135.278C1541.63 135.278 1540.98 134.424 1539.84 132.715C1534.71 126.774 1526.74 122.868 1515.92 120.996C1512.58 120.345 1509.16 120.02 1505.66 120.02C1490.85 120.02 1483.45 124.495 1483.45 133.447C1483.45 136.54 1484.99 138.9 1488.08 140.527C1493.86 143.62 1501.76 145.898 1511.77 147.363C1521.86 148.828 1529.51 150.822 1534.71 153.345C1539.92 155.786 1544.11 158.757 1547.29 162.256C1553.15 168.604 1556.08 177.026 1556.08 187.524C1556.08 198.999 1551.48 208.317 1542.28 215.479C1532.68 223.047 1519.29 226.831 1502.12 226.831ZM1631.04 198.145C1641.54 198.145 1648.74 195.418 1652.64 189.966H1653.62L1653.99 218.286C1650 222.274 1642.59 224.919 1631.77 226.221C1628.84 226.628 1625.18 226.831 1620.78 226.831C1616.47 226.831 1611.75 226.017 1606.62 224.39C1601.58 222.762 1597.27 220.117 1593.68 216.455C1586.28 208.887 1582.58 197.046 1582.58 180.933V125.513H1564.14C1564.06 123.153 1564.02 120.752 1564.02 118.311V99.5117C1564.02 98.1283 1564.06 97.4365 1564.14 97.4365H1582.58V62.6465H1612.48V97.4365H1646.05V125.513H1612.48V175.317C1612.48 188.094 1616.02 195.378 1623.1 197.168C1625.38 197.819 1628.03 198.145 1631.04 198.145Z" fill="#EEEEEE"/>
<defs>
<clipPath id="clip0_1_100">
<rect y="9" width="295" height="295" rx="40" fill="white"/>
</clipPath>
</defs>
</svg>
